<?xml version="1.0" encoding="UTF-8" standalone="no"?>
<svg width="867px" height="110px" viewBox="0 0 867 110" version="1.1" xmlns="http://www.w3.org/2000/svg" xmlns:xlink="http://www.w3.org/1999/xlink" xmlns:sketch="http://www.bohemiancoding.com/sketch/ns">
    <title>logo</title>
    <description>Created with Sketch (http://www.bohemiancoding.com/sketch)</description>
    <defs></defs>
    <g id="Page-1" stroke="none" stroke-width="1" fill="none" fill-rule="evenodd" sketch:type="MSPage">
        <path d="M2.344,81.648 L2.344,104.4 C2.344,104.4 14.872,109.44 30.424,109.44 C51.88,109.44 59.944,100.512 59.944,86.832 C59.944,73.728 51.304,64.8 30.424,63.504 C23.224,62.928 19.624,61.344 19.624,57.312 C19.624,52.848 22.792,50.832 30.424,50.832 C33.592,50.832 36.904,51.552 40.216,52.272 C40.648,57.888 41.512,62.208 41.512,62.208 L55.624,62.208 L55.624,39.168 C55.624,39.168 45.112,34.56 30.424,34.56 C9.112,34.56 0.904,42.912 0.904,57.312 C0.904,70.272 9.256,79.2 30.424,80.496 C37.48,80.928 41.224,82.656 41.224,86.832 C41.224,91.296 37.336,93.168 30.424,93.168 C25.96,93.168 21.352,92.304 16.744,91.296 C16.456,87.408 15.592,81.648 15.592,81.648 L2.344,81.648 Z M107.696,109.44 C138.08,109.44 141.824,86.4 141.824,72 C141.824,57.6 138.224,34.56 107.696,34.56 C77.3120001,34.56 73.7120001,57.6 73.7120001,72 C73.7120001,86.4 77.3120001,109.44 107.696,109.44 Z M107.696,94.176 C95.7440001,94.176 92.2880001,82.8 92.2880001,72 C92.2880001,61.2 95.7440001,49.968 107.696,49.968 C119.504,49.968 123.104,61.2 123.104,72 C123.104,82.8 119.504,94.176 107.696,94.176 Z M214.056,87.12 L202.536,87.12 C202.536,87.12 201.384,90 201.24,92.736 C202.536,92.448 195.768,93.168 189.288,93.168 C177.336,93.168 174.6,82.8 174.6,72 C174.6,61.2 177.336,50.832 189.144,50.832 C193.752,50.832 199.8,51.552 198.648,51.264 C199.08,56.88 199.944,62.208 199.944,62.208 L214.056,62.208 L214.056,39.168 C214.056,39.168 203.544,34.56 189.144,34.56 C158.904,34.56 156.024,55.728 156.024,72 C156.024,92.16 160.776,109.44 189.288,109.44 C201.528,109.44 214.056,105.84 214.056,105.84 L214.056,87.12 Z M229.12,108 L270.304,108 L270.304,93.168 C270.304,93.168 264.688,92.448 259.072,92.448 L259.072,36 L229.12,36 L229.12,50.112 C229.12,50.112 234.592,50.976 240.352,51.408 L240.352,60.048 C240.352,69.552 240.496,82.224 240.928,92.592 C234.448,92.88 229.12,93.888 229.12,93.888 L229.12,108 Z M238.624,16.128 C238.624,22.032 243.52,26.928 249.424,26.928 C255.472,26.928 260.224,22.032 260.224,16.128 C260.224,10.08 255.472,5.328 249.424,5.328 C243.52,5.328 238.624,10.08 238.624,16.128 Z M286.088,60.48 L300.344,60.48 C300.344,60.48 301.208,56.304 301.496,50.976 C304.664,50.832 309.416,50.832 312.296,50.832 C319.784,50.832 322.088,55.728 322.088,64.368 C322.088,64.368 314.456,62.928 312.296,62.928 C283.208,62.928 282.344,78.336 282.344,86.256 C282.344,95.184 283.208,109.44 312.296,109.44 C325.112,109.44 333.608,108 350.456,108 L350.456,93.888 C350.456,93.888 345.848,92.88 340.232,92.592 C340.088,94.896 340.808,77.472 340.808,72 C340.808,53.28 339.656,34.56 312.296,34.56 C299.912,34.56 286.088,37.44 286.088,37.44 L286.088,60.48 Z M322.088,79.2 L322.088,92.448 C322.088,92.448 317.768,93.168 312.296,93.168 C301.784,93.168 300.92,89.424 300.92,86.256 C300.92,82.944 301.784,79.2 312.296,79.2 L322.088,79.2 Z M358.464,108 L399.792,108 L399.792,93.168 C399.792,93.168 394.32,92.448 388.704,92.448 L388.704,60.048 C388.704,41.184 389.424,0 389.424,0 L358.464,0 L358.464,14.112 C358.464,14.112 363.936,14.976 370.992,15.408 C370.56,29.664 369.984,48.672 369.984,60.048 C369.984,69.84 370.128,82.224 370.56,92.592 C364.08,92.88 358.464,93.888 358.464,93.888 L358.464,108 Z M413.992001,81.648 L413.992001,104.4 C413.992001,104.4 426.520001,109.44 442.072001,109.44 C463.528001,109.44 471.592001,100.512 471.592001,86.832 C471.592001,73.728 462.952001,64.8 442.072001,63.504 C434.872001,62.928 431.272001,61.344 431.272001,57.312 C431.272001,52.848 434.440001,50.832 442.072001,50.832 C445.240001,50.832 448.552001,51.552 451.864001,52.272 C452.296001,57.888 453.160001,62.208 453.160001,62.208 L467.272001,62.208 L467.272001,39.168 C467.272001,39.168 456.760001,34.56 442.072001,34.56 C420.760001,34.56 412.552001,42.912 412.552001,57.312 C412.552001,70.272 420.904001,79.2 442.072001,80.496 C449.128001,80.928 452.872001,82.656 452.872001,86.832 C452.872001,91.296 448.984001,93.168 442.072001,93.168 C437.608001,93.168 433.000001,92.304 428.392001,91.296 C428.104001,87.408 427.240001,81.648 427.240001,81.648 L413.992001,81.648 Z M482.912001,108 L523.232001,108 L523.232001,93.168 C523.232001,93.168 518.768001,92.448 513.152001,92.448 L513.152001,51.552 C513.152001,51.552 519.632001,50.832 525.680001,50.832 C537.344001,50.832 537.632001,60.48 537.632001,72 L537.632001,92.448 C532.160001,92.448 527.552001,93.168 527.552001,93.168 L527.552001,108 L567.872001,108 L567.872001,93.888 C567.872001,93.888 562.400001,92.88 555.776001,92.592 C556.208001,84.528 556.352001,76.32 556.352001,72 C556.352001,57.6 555.920001,34.56 525.680001,34.56 C519.632001,34.56 513.152001,35.712 513.152001,35.712 C513.152001,19.296 513.872001,0 513.872001,0 L482.912001,0 L482.912001,14.112 C482.912001,14.112 488.384001,14.976 495.296001,15.408 C494.720001,29.232 494.432001,47.664 494.432001,58.896 C494.432001,69.12 494.576001,82.08 495.008001,92.592 C489.104001,92.88 482.912001,93.888 482.912001,93.888 L482.912001,108 Z M582.504001,60.48 L596.760001,60.48 C596.760001,60.48 597.624001,56.304 597.912001,50.976 C601.080001,50.832 605.832001,50.832 608.712001,50.832 C616.200001,50.832 618.504001,55.728 618.504001,64.368 C618.504001,64.368 610.872001,62.928 608.712001,62.928 C579.624001,62.928 578.760001,78.336 578.760001,86.256 C578.760001,95.184 579.624001,109.44 608.712001,109.44 C621.528001,109.44 630.024001,108 646.872001,108 L646.872001,93.888 C646.872001,93.888 642.264001,92.88 636.648001,92.592 C636.504001,94.896 637.224001,77.472 637.224001,72 C637.224001,53.28 636.072001,34.56 608.712001,34.56 C596.328001,34.56 582.504001,37.44 582.504001,37.44 L582.504001,60.48 Z M618.504001,79.2 L618.504001,92.448 C618.504001,92.448 614.184001,93.168 608.712001,93.168 C598.200001,93.168 597.336001,89.424 597.336001,86.256 C597.336001,82.944 598.200001,79.2 608.712001,79.2 L618.504001,79.2 Z M656.896001,108 L700.096001,108 L700.096001,93.168 C700.096001,93.168 692.608001,92.448 687.136001,92.448 L687.136001,69.12 C687.136001,58.608 690.304001,50.832 699.808001,50.832 C701.968001,50.832 703.264001,50.976 705.856001,51.12 C706.144001,57.312 707.008001,62.64 707.008001,62.64 L721.264001,62.64 L721.264001,37.008 C721.264001,37.008 711.760001,34.56 699.808001,34.56 C694.192001,34.56 687.568001,38.592 685.264001,41.76 C684.976001,40.752 683.968001,36 683.968001,36 L657.328001,36 L657.328001,50.112 C657.328001,50.112 662.656001,50.976 668.416001,51.408 L668.416001,59.472 C668.416001,69.264 668.704001,82.08 669.136001,92.592 C662.800001,92.736 656.896001,93.888 656.896001,93.888 L656.896001,108 Z M790.184001,87.12 L778.664001,87.12 C778.664001,87.12 777.512001,90 777.368001,92.736 C772.904001,93.312 769.160001,93.168 764.984001,93.168 C756.632001,93.168 752.168001,88.848 752.168001,79.632 C752.168001,79.632 758.648001,81.072 764.984001,81.072 C790.904001,81.072 793.496001,65.376 793.496001,57.888 C793.496001,50.256 790.904001,34.56 764.984001,34.56 C738.344001,34.56 733.592001,49.968 733.592001,72 C733.592001,91.152 738.344001,109.44 764.984001,109.44 C777.656001,109.44 790.184001,105.84 790.184001,105.84 L790.184001,87.12 Z M752.168001,64.8 C752.168001,54.288 756.056001,50.832 764.984001,50.832 C774.200001,50.832 774.776001,54 774.776001,57.888 C774.776001,61.488 774.200001,64.8 764.984001,64.8 L752.168001,64.8 Z M808.848001,81.648 L808.848001,104.4 C808.848001,104.4 821.376001,109.44 836.928001,109.44 C858.384001,109.44 866.448001,100.512 866.448001,86.832 C866.448001,73.728 857.808001,64.8 836.928001,63.504 C829.728001,62.928 826.128001,61.344 826.128001,57.312 C826.128001,52.848 829.296001,50.832 836.928001,50.832 C840.096001,50.832 843.408001,51.552 846.720001,52.272 C847.152001,57.888 848.016001,62.208 848.016001,62.208 L862.128001,62.208 L862.128001,39.168 C862.128001,39.168 851.616001,34.56 836.928001,34.56 C815.616001,34.56 807.408001,42.912 807.408001,57.312 C807.408001,70.272 815.760001,79.2 836.928001,80.496 C843.984001,80.928 847.728001,82.656 847.728001,86.832 C847.728001,91.296 843.840001,93.168 836.928001,93.168 C832.464001,93.168 827.856001,92.304 823.248001,91.296 C822.960001,87.408 822.096001,81.648 822.096001,81.648 L808.848001,81.648 Z" id="socialshares-copy" fill="#A81F80" sketch:type="MSShapeGroup"></path>
    </g>
</svg>